{
  "asset": {
    "generator": "Khronos glTF Blender I/O v1.5.17",
    "version": "2.0"
  },
  "scene": 0,
  "scenes": [
    {
      "name": "Scene",
      "nodes": [
        0
      ]
    }
  ],
  "nodes": [
    {
      "mesh": 0,
      "name": "sphere_gltf"
    }
  ],
  "materials": [
    {
      "doubleSided": true,
      "name": "grey_plaster_02",
      "normalTexture": {
        "index": 0
      },
      "pbrMetallicRoughness": {
        "baseColorTexture": {
          "index": 1
        },
        "metallicFactor": 0,
        "metallicRoughnessTexture": {
          "index": 2
        }
      }
    }
  ],
  "meshes": [
    {
      "name": "Sphere.001",
      "primitives": [
        {
          "attributes": {
            "POSITION": 0,
            "NORMAL": 1,
            "TEXCOORD_0": 2
          },
          "indices": 3,
          "material": 0
        }
      ]
    }
  ],
  "textures": [
    {
      "sampler": 0,
      "source": 0
    },
    {
      "sampler": 0,
      "source": 1
    },
    {
      "sampler": 0,
      "source": 2
    }
  ],
  "images": [
    {
      "mimeType": "image/jpeg",
      "name": "grey_plaster_02_nor_gl_4k",
      "uri": "textures/grey_plaster_02_nor_gl_1k.jpg"
    },
    {
      "mimeType": "image/jpeg",
      "name": "grey_plaster_02_diff_4k",
      "uri": "textures/grey_plaster_02_diff_1k.jpg"
    },
    {
      "mimeType": "image/jpeg",
      "name": "grey_plaster_02_rough_4k",
      "uri": "textures/grey_plaster_02_rough_1k.jpg"
    }
  ],
  "accessors": [
    {
      "bufferView": 0,
      "componentType": 5126,
      "count": 53915,
      "max": [
        0.4996557831764221,
        0.5016909241676331,
        0.5006620287895203
      ],
      "min": [
        -0.4996555745601654,
        -0.5016481280326843,
        -0.5006600022315979
      ],
      "type": "VEC3"
    },
    {
      "bufferView": 1,
      "componentType": 5126,
      "count": 53915,
      "type": "VEC3"
    },
    {
      "bufferView": 2,
      "componentType": 5126,
      "count": 53915,
      "type": "VEC2"
    },
    {
      "bufferView": 3,
      "componentType": 5123,
      "count": 322170,
      "type": "SCALAR"
    }
  ],
  "bufferViews": [
    {
      "buffer": 0,
      "byteLength": 646980,
      "byteOffset": 0
    },
    {
      "buffer": 0,
      "byteLength": 646980,
      "byteOffset": 646980
    },
    {
      "buffer": 0,
      "byteLength": 431320,
      "byteOffset": 1293960
    },
    {
      "buffer": 0,
      "byteLength": 644340,
      "byteOffset": 1725280
    }
  ],
  "samplers": [
    {
      "magFilter": 9729,
      "minFilter": 9987
    }
  ],
  "buffers": [
    {
      "byteLength": 2369620,
      "uri": "grey_plaster_02.bin"
    }
  ]
}